<?xml version="1.0" standalone="no"?><!DOCTYPE svg PUBLIC "-//W3C//DTD SVG 1.1//EN" "http://www.w3.org/Graphics/SVG/1.1/DTD/svg11.dtd"><svg t="1503146966904" class="icon" style="" viewBox="0 0 1024 1024" version="1.1" xmlns="http://www.w3.org/2000/svg" p-id="11525" xmlns:xlink="http://www.w3.org/1999/xlink" width="160" height="160"><defs><style type="text/css"></style></defs><path d="M186.026667 71.338667c0 4.778667 2.389333 9.557333 6.826666 11.946666 4.437333 2.389333 9.557333 2.389333 13.653334 0 4.437333-2.389333 6.826667-6.826667 6.826666-11.946666 0-7.850667-6.144-13.653333-13.653333-13.653334-7.509333 0.341333-13.653333 6.144-13.653333 13.653334zM962.56 309.589333s-9.898667 33.109333-29.354667 37.888c0 0 24.576 9.898667 29.354667 34.133334 0 0 3.754667-35.498667 31.744-36.181334 0 0-30.378667-16.384-31.744-35.84zM1012.053333 255.317333s-3.754667 12.629333-11.264 14.336c0 0 9.216 3.754667 11.264 12.970667 0 0 1.365333-13.312 11.946667-13.312 0-0.341333-11.605333-6.826667-11.946667-13.994667zM11.264 350.549333s-3.754667 12.629333-11.264 14.336c0 0 9.216 3.754667 11.264 12.970667 0 0 1.365333-13.312 11.946667-13.312 0 0-11.605333-6.485333-11.946667-13.994667zM723.968 51.541333c-10.922667 0-19.456 8.533333-19.456 19.456s8.533333 19.456 19.456 19.456 19.456-8.533333 19.456-19.456-8.533333-19.456-19.456-19.456z m0 33.792c-8.192 0-14.677333-6.485333-14.677333-14.677333s6.485333-14.677333 14.677333-14.677333c7.850667 0 14.677333 6.485333 14.677333 14.677333s-6.485333 14.677333-14.677333 14.677333zM135.509333 388.778667c-10.922667 0-19.456 8.533333-19.456 19.456s8.533333 19.456 19.456 19.456 19.456-8.533333 19.456-19.456-8.533333-19.456-19.456-19.456z m0 33.792c-8.192 0-14.677333-6.485333-14.677333-14.677334s6.485333-14.677333 14.677333-14.677333c7.850667 0 14.677333 6.485333 14.677334 14.677333s-6.485333 14.677333-14.677334 14.677334zM395.605333 0s-7.168 25.258667-22.528 29.013333c0 0 18.432 7.168 22.528 26.282667 0 0 3.072-27.306667 24.234667-27.648 0.341333 0-23.552-12.629333-24.234667-27.648zM126.293333 270.677333s-7.168 25.258667-22.528 29.013334c0 0 18.432 7.168 22.528 26.282666 0 0 3.072-27.306667 24.234667-27.648 0.341333 0-23.552-12.288-24.234667-27.648zM358.058667 968.021333v4.778667c-6.485333 0.682667-11.946667 1.024-15.701334 1.365333v8.533334h-5.12v-8.192c-5.12 0.341333-12.629333 0.682667-22.186666 1.365333l-0.682667-4.778667c8.192-0.341333 15.701333-0.682667 22.869333-1.365333v-9.898667H317.44l-1.024-4.437333c3.072-3.413333 6.144-7.509333 9.216-12.970667h-12.288v-5.12H327.68l3.072-7.168 5.461333 1.024-2.730666 6.144h25.941333v5.12h-28.672c-2.730667 5.12-5.802667 9.557333-8.533333 12.970667h14.336v-7.168h5.12v7.168h16.725333v4.437333h-16.725333v9.557334l16.384-1.365334z m33.109333 18.432v37.546667H385.706667v-4.437333H331.434667v4.437333h-5.461334v-37.546667h65.194667z m-59.733333 14.336H385.706667v-9.557333H331.434667v9.557333z m0 13.994667H385.706667v-9.557333H331.434667v9.557333z m40.277333-54.954667c-1.024 8.874667-3.754667 16.384-8.192 22.869334l-3.754667-4.096c4.778667-7.168 7.168-15.36 7.509334-24.576V938.666667c12.288-1.024 22.186667-3.413333 29.354666-6.826667l3.754667 4.096c-7.509333 3.413333-16.725333 5.802667-28.330667 6.826667v11.946666h31.402667v5.12h-11.605333v23.210667h-5.461334v-23.210667h-14.677333zM423.253333 936.618667h72.362667v5.461333h-36.864v7.509333c0 6.485333-0.682667 12.970667-1.365333 19.114667h46.762666v5.461333h-32.426666v37.888c0 3.413333 1.706667 5.12 5.12 5.12h13.994666c3.072 0 5.12-0.682667 6.144-2.048 1.706667-1.706667 2.730667-6.485333 3.072-14.677333l5.12 1.706667c-0.682667 9.216-2.048 15.36-4.437333 17.408-2.048 1.706667-4.778667 2.730667-8.874667 2.730666h-17.066666c-5.802667 0-8.874667-3.072-8.874667-9.216v-39.253333h-9.557333c-1.706667 8.874667-4.096 16.384-7.850667 23.210667-6.144 10.922667-16.384 19.797333-30.72 26.282666l-3.413333-4.778666c13.994667-6.144 24.234667-14.677333 30.037333-25.6 2.389333-5.461333 4.437333-11.605333 6.144-18.773334h-34.816v-5.461333h35.498667c1.024-6.144 1.365333-12.629333 1.365333-19.114667V942.08H423.253333v-5.461333zM536.576 978.261333l5.461333 0.682667-2.389333 6.485333h21.845333v4.778667c-2.389333 7.168-6.485333 13.312-12.288 18.432 5.12 2.048 10.24 4.778667 15.36 7.509333l-3.072 4.437334c-4.778667-2.730667-10.24-5.461333-16.725333-8.533334-6.826667 5.12-15.36 8.874667-25.6 11.946667l-2.730667-4.778667c8.874667-2.389333 16.725333-5.802667 22.869334-9.557333-4.437333-2.048-9.216-3.754667-14.677334-5.802667 2.730667-4.778667 5.461333-8.874667 7.509334-13.312h-12.970667v-5.12h15.36l2.048-7.168z m-17.749333-27.648h20.138666v-19.797333h5.12v19.797333h19.456v5.12h-19.456v1.365334c6.485333 3.413333 12.288 7.168 17.749334 10.922666l-3.072 4.437334c-5.461333-4.437333-10.581333-8.192-14.677334-10.922667v14.677333h-5.12v-20.48h-0.341333c-3.413333 8.192-9.557333 15.36-18.773333 21.504l-2.730667-4.778666c8.533333-4.778667 14.677333-10.581333 17.749333-17.066667H518.826667v-4.778667z m6.485333-17.408c2.730667 4.096 4.778667 8.192 6.826667 12.970667l-4.437334 2.048c-2.048-4.778667-4.437333-9.216-6.826666-13.312l4.437333-1.706667z m30.72 57.002667h-18.773333c-1.706667 3.754667-3.754667 7.168-6.144 10.922667 4.437333 1.365333 8.533333 3.072 12.629333 4.778666 5.12-4.437333 9.557333-9.898667 12.288-15.701333z m6.144-55.978667c-2.048 4.778667-4.778667 9.216-7.850667 13.653334l-4.096-2.048c3.413333-4.778667 5.802667-9.216 7.509334-13.653334l4.437333 2.048z m11.946667 32.768c-2.048 5.461333-4.096 10.24-6.826667 14.677334l-3.413333-4.437334c6.144-11.605333 10.581333-27.306667 12.629333-47.104l5.461333 1.024c-0.682667 5.461333-1.365333 10.581333-2.389333 15.701334h27.989333v5.461333h-7.168c-0.341333 17.749333-3.413333 32.768-9.216 44.714667 5.461333 9.557333 11.946667 16.725333 19.456 21.845333l-3.072 4.778667c-7.509333-5.12-13.653333-12.288-19.114666-21.504-5.12 8.874667-11.605333 16.042667-19.456 21.845333l-3.072-4.778667c8.192-5.802667 14.677333-13.312 19.456-22.528-4.778667-8.192-8.533333-18.090667-11.264-29.696z m4.096-14.677333c-0.682667 2.730667-1.365333 4.778667-1.706667 6.144 2.730667 12.629333 6.485333 23.552 10.922667 32.768 4.437333-11.264 6.826667-24.234667 7.168-38.912h-16.384zM621.909333 1022.976l-1.024-5.12c3.413333 0.341333 6.144 0.341333 7.850667 0.341333 2.730667 0 4.096-1.706667 4.096-4.778666v-27.306667c-4.096 1.365333-8.533333 3.072-12.970667 4.437333l-1.365333-5.461333c5.12-1.365333 9.898667-2.730667 14.336-4.437333v-24.576h-12.970667v-5.461334h12.970667v-19.797333h5.461333v19.797333h10.581334v5.461334H638.293333v22.186666c3.413333-1.706667 6.826667-3.072 10.24-4.778666v5.461333c-3.413333 2.048-6.826667 3.413333-10.24 4.778667v30.72c0 5.461333-2.730667 8.192-7.850666 8.192h-8.533334z m38.570667-45.738667c-1.365333 17.749333-5.12 33.109333-12.288 46.762667l-4.437333-3.754667c7.509333-13.994667 11.264-31.744 11.605333-53.930666V935.253333h52.906667v23.552h-19.797334v13.312h22.528v5.12h-22.528v13.994667h17.749334v32.768h-5.12v-5.461333h-30.72v5.461333H665.6v-32.768h17.749333v-13.994667h-22.869333z m22.528-18.432h-22.186667v13.312h22.528v-13.312z m19.797333-18.432h-42.325333v13.312h42.325333v-13.312z m-32.085333 73.045334h30.72v-17.066667h-30.72v17.066667zM282.282667 793.941333h-11.946667v-140.288l11.946667-1.365333zM285.013333 641.706667l-11.605333-3.754667 24.234667-72.362667c11.264-33.109333 22.186667-66.218667 33.109333-99.328l11.605333 3.754667c-11.264 33.109333-22.186667 66.218667-33.109333 99.328L285.013333 641.706667z" fill="#CCCCCC" p-id="11526"></path><path d="M270.336 653.653333c-0.341333-5.461333 1.365333-10.24 2.389333-14.677333l0.341334-1.365333 11.605333 3.754666-0.341333 1.365334c-1.365333 3.413333-2.048 6.485333-2.048 9.557333l-11.946667 1.365333z m19.456 162.133334c-4.437333 0-9.898667-0.341333-14.336-4.778667-5.12-4.778667-5.12-11.605333-5.12-16.384v-0.682667h12.288v0.682667c0 3.072 0 6.144 1.365333 7.168l0.341334 0.341333c1.365333 1.365333 4.437333 1.365333 7.168 1.365334h432.810666c2.389333 0 3.754667-0.341333 4.778667-0.682667l0.341333-0.341333c0.341333-0.341333 0.682667-1.365333 1.365334-4.437334v-143.701333c0-2.048 0-4.437333-0.341334-6.144-7.850667-23.552-16.042667-47.445333-23.552-70.997333-11.946667-35.84-23.552-71.68-35.84-107.178667-0.682667-2.048-2.389333-3.754667-4.778666-3.754667h-314.026667c-2.048 0-4.778667 0-6.485333 0.341334-1.365333 0.341333-2.389333 1.706667-3.072 3.072l-11.605334-3.754667c1.706667-5.461333 6.144-9.898667 11.605334-11.264 3.413333-0.682667 6.826667-0.682667 9.557333-0.682667H665.6c7.168-0.341333 14.336 4.778667 16.384 11.946667 11.946667 35.84 23.552 71.68 35.84 107.178667 7.850667 23.552 16.042667 47.445333 23.552 70.997333v0.341333c0.682667 3.413333 0.682667 6.826667 0.682667 9.898667v143.018667c0 6.144-1.706667 10.24-5.12 13.312-4.437333 4.437333-10.24 4.778667-13.312 4.778666l-433.834667 0.341334z" fill="#CCCCCC" p-id="11527"></path><path d="M506.197333 728.405333c-13.653333 0-27.648-4.437333-38.912-12.629333-16.042667-11.605333-26.282667-30.037333-27.306666-49.493333 0-1.706667-0.341333-5.12-1.365334-6.144l-0.341333-0.341334c-0.341333-0.341333-2.048-0.682667-4.437333-0.682666H300.373333c-3.413333 0-6.144-2.389333-6.144-6.144 0-3.413333 2.389333-6.144 6.144-6.144h133.802667c4.437333 0 9.216 0.682667 12.970667 4.437333 5.12 4.437333 5.461333 11.264 5.461333 14.677333 0.682667 15.701333 9.216 31.061333 22.186667 40.277334 9.898667 7.168 22.528 10.922667 34.474666 10.24 14.336-0.341333 28.330667-7.168 37.546667-18.090667 8.192-9.216 12.970667-21.504 13.312-33.109333 0-3.072 0.341333-9.216 5.12-13.312 3.754667-4.437333 9.557333-4.778667 13.312-5.12h133.802667c3.413333 0 6.144 2.389333 6.144 6.144 0 3.413333-2.389333 6.144-6.144 6.144h-133.461334c-3.072 0-4.437333 0.341333-4.778666 0.682666l-0.341334 0.341334c-0.682667 0.682667-1.365333 3.754667-1.365333 4.778666-0.341333 15.018667-6.144 29.696-16.384 40.96-11.605333 13.312-28.330667 21.504-46.08 22.528-1.706667-0.682667-2.389333 0-3.754667 0zM633.514667 218.112l61.098666 27.648L795.306667 166.570667 718.848 249.173333l76.458667 25.6 42.325333-154.624zM718.165333 268.288l-4.096 46.762667 26.282667-34.474667zM467.285333 511.317333c-15.701333 8.533333-27.306667 13.312-27.306666 13.312l2.389333 6.826667c0.341333 0 11.946667-4.778667 27.989333-13.653333l-3.072-6.485334zM501.76 488.106667c-7.168 5.461333-14.677333 11.264-22.528 16.042666-1.706667 1.365333-2.048 3.413333-1.365333 5.12 1.365333 1.706667 3.413333 2.048 5.12 1.365334 8.192-5.12 16.042667-10.922667 23.210666-16.384 0.682667-0.682667 1.706667-2.048 1.365334-3.413334 0-1.365333-1.365333-2.389333-2.048-3.072-1.365333-0.341333-2.730667-0.341333-3.754667 0.341334zM541.354667 450.218667c-1.706667-1.365333-3.754667-0.682667-5.12 0.682666-6.144 8.533333-12.970667 16.725333-21.162667 24.576-1.365333 1.365333-1.365333 3.754667 0 5.12 1.365333 1.365333 3.754667 1.365333 5.12 0 8.533333-8.192 16.042667-16.725333 22.186667-25.941333 0.341333-0.682667 0.682667-1.706667 0.341333-2.389333 0.341333-0.341333-0.341333-1.365333-1.365333-2.048zM558.421333 371.370667c0 1.365333 0.682667 2.389333 2.048 3.072 1.365333 0.341333 2.389333 0.341333 3.754667-0.341334 0.682667-0.682667 1.706667-2.048 1.365333-3.413333-1.706667-16.384-7.850667-29.013333-17.408-37.205333-1.706667-1.365333-3.754667-0.682667-5.12 0.341333-1.365333 1.365333-1.365333 3.754667 0.341334 5.12 8.533333 6.485333 13.653333 17.749333 15.018666 32.426667zM498.688 334.848c0.341333 0 0.682667 0 1.706667-0.341333 9.898667-4.437333 20.821333-5.461333 30.037333-3.072 2.048 0.341333 3.754667-0.341333 4.778667-2.389334 0.341333-2.048-0.341333-3.754667-2.389334-4.778666-11.264-3.072-23.552-2.048-34.816 3.072-1.706667 0.682667-2.389333 2.389333-2.048 4.437333-0.341333 1.365333 1.024 3.072 2.730667 3.072zM478.890667 371.712c-0.682667-3.072-0.682667-6.144-0.341334-9.216l3.413334-11.264c1.706667-3.072 3.413333-5.461333 5.461333-7.850667 1.365333-1.365333 1.365333-3.754667 0-5.12-1.365333-1.365333-3.754667-1.365333-5.12 0-9.557333 9.898667-13.312 22.528-10.24 35.498667 0.341333 2.048 2.389333 3.072 4.437333 2.389333 1.706667-0.341333 3.072-2.730667 2.389334-4.437333zM479.914667 384.682667c-1.706667 1.365333-2.048 3.413333-0.682667 5.12 3.754667 5.461333 9.216 11.264 15.018667 16.384 2.048 1.706667 4.778667 3.754667 6.826666 5.461333 1.706667 1.365333 3.754667 0.682667 5.12-0.682667 1.365333-1.706667 0.682667-3.754667-0.682666-5.12l-6.485334-5.12c-5.461333-4.778667-10.24-9.898667-13.653333-15.018666-1.706667-2.048-3.754667-2.389333-5.461333-1.024zM537.6 426.325333c1.706667 0 3.413333-1.365333 3.413333-3.413333 0-1.706667-1.365333-3.413333-3.072-3.754667-7.168-0.682667-14.336-3.413333-21.504-6.826666-1.706667-0.682667-3.754667 0-4.778666 1.706666-0.682667 1.706667 0 3.754667 1.706666 4.778667 7.850667 3.754667 15.701333 6.485333 23.552 7.850667l0.682667-0.341334c0 0.341333 0 0 0 0zM565.248 417.450667c-1.365333 0.341333-3.072 0.682667-4.437333 1.365333 2.389333-8.533333 4.437333-17.749333 5.12-26.282667 0-0.682667-0.341333-1.706667-0.682667-2.389333-0.341333-0.682667-1.706667-1.365333-2.389333-1.365333-2.048 0-3.754667 1.365333-3.754667 3.413333-0.682667 9.557333-2.389333 19.114667-6.144 27.989333-1.365333 0-3.072 0-4.437333 0.341334-2.048 0-3.413333 1.706667-3.413334 3.413333 0 2.048 1.706667 3.413333 3.754667 3.413333h1.365333c-1.365333 3.413333-3.072 6.826667-4.778666 10.24-0.682667 1.706667 0 3.754667 1.706666 4.778667 1.706667 0.682667 3.754667 0.341333 4.778667-1.365333 2.389333-4.778667 4.778667-9.557333 6.485333-14.336 3.072-0.341333 6.144-1.365333 9.216-2.048 2.048-0.341333 3.072-2.389333 2.389334-4.437334-0.341333-2.389333-2.730667-3.754667-4.778667-2.730666zM608.256 391.850667c-8.533333 7.168-16.725333 13.653333-25.258667 18.090666-1.706667 0.682667-2.389333 3.072-1.365333 5.12 0.682667 1.706667 3.072 2.389333 5.12 1.365334 8.533333-4.778667 17.749333-11.264 26.624-19.114667 0.682667-0.682667 1.365333-2.048 1.365333-3.413333-0.341333-1.365333-1.365333-2.389333-2.389333-2.389334-1.706667-0.682667-3.072-0.341333-4.096 0.341334zM645.802667 355.328c-0.682667-0.341333-1.706667-0.682667-2.389334-0.682667s-1.706667 0.341333-2.389333 1.365334c-6.144 8.192-12.629333 16.042667-19.114667 22.528-1.365333 1.365333-1.365333 3.754667 0.341334 5.12 1.365333 1.365333 3.754667 1.365333 5.12 0 6.485333-6.826667 12.970667-14.677333 19.456-23.210667 0.341333-0.682667 0.682667-1.706667 0.682666-2.389333-0.341333-1.024-0.682667-2.048-1.706666-2.730667zM676.181333 308.224c-0.682667-0.341333-1.706667-0.341333-2.389333-0.341333-0.682667 0.341333-1.706667 0.682667-2.048 1.706666-5.461333 10.24-11.946667 20.138667-18.432 29.696-0.682667 1.365333-0.682667 2.389333-0.341333 3.754667 0.341333 1.365333 1.706667 2.048 3.072 2.048s2.389333-0.341333 3.413333-1.706667c6.485333-9.898667 12.970667-20.138667 19.114667-30.72 0.341333-0.682667 0.341333-1.706667 0.341333-2.389333-1.024-1.024-2.048-1.365333-2.730667-2.048zM699.392 261.461333c-0.682667-0.341333-1.706667-0.341333-3.072 0-0.682667 0.341333-1.706667 0.682667-2.048 2.048 0 0-4.778667 11.264-12.970667 27.648-0.682667 1.706667-0.341333 3.754667 1.706667 4.778667 1.706667 0.682667 3.754667 0.341333 4.778667-1.706667 8.533333-16.384 13.312-27.648 13.312-27.989333 0.682667-1.706667 0-4.096-1.706667-4.778667z" fill="#CCCCCC" p-id="11528"></path></svg>