<svg id="svg" version="1.1" width="400" height="88" xmlns="http://www.w3.org/2000/svg" xmlns:xlink="http://www.w3.org/1999/xlink" style="display: block;"><g id="svgg"><path id="path0" d="M0.000 44.000 L 0.000 88.000 31.418 88.000 C 65.693 88.000,65.415 88.031,67.537 83.928 C 71.238 76.772,72.063 77.000,42.500 77.000 L 16.000 77.000 16.000 44.500 L 16.000 12.000 44.000 12.000 L 72.000 12.000 72.000 50.000 L 72.000 88.000 80.500 88.000 L 89.000 88.000 89.000 48.968 C 89.000 -5.564,94.621 0.000,39.532 0.000 L 0.000 0.000 0.000 44.000 M104.503 3.250 C 107.086 15.938,108.683 18.000,115.929 18.000 C 120.560 18.000,124.000 16.300,124.000 14.010 C 124.000 13.545,124.273 12.452,124.607 11.582 C 124.997 10.565,124.669 10.000,123.686 10.000 C 122.764 10.000,121.900 8.713,121.505 6.750 C 120.079 -0.333,120.556 0.000,111.853 0.000 L 103.841 0.000 104.503 3.250 M245.667 0.667 C 245.300 1.033,245.000 2.383,245.000 3.667 L 245.000 6.000 227.500 6.000 L 210.000 6.000 210.000 12.000 L 210.000 18.000 249.550 18.000 C 292.447 18.000,293.361 17.892,295.805 12.528 C 298.789 5.979,298.842 6.000,279.500 6.000 C 264.917 6.000,262.000 5.759,262.000 4.557 C 262.000 1.105,248.455 -2.121,245.667 0.667 M324.000 6.000 L 324.000 12.000 317.500 12.000 L 311.000 12.000 311.000 17.500 L 311.000 23.000 317.500 23.000 L 324.000 23.000 324.000 55.500 L 324.000 88.000 326.250 87.996 C 336.354 87.979,338.000 82.661,338.000 50.032 L 338.000 23.000 341.826 23.000 C 346.350 23.000,349.633 20.086,350.610 15.202 L 351.250 12.000 344.625 12.000 L 338.000 12.000 338.000 6.000 L 338.000 0.000 331.000 0.000 L 324.000 0.000 324.000 6.000 M352.966 4.750 C 355.255 12.372,356.669 13.000,371.547 13.000 C 381.791 13.000,382.999 13.185,382.992 14.750 C 382.976 18.523,380.876 29.190,378.872 35.678 L 376.765 42.500 374.893 37.734 C 373.863 35.112,372.504 30.837,371.872 28.234 C 370.122 21.016,363.287 16.000,355.203 16.000 C 352.006 16.000,356.824 37.532,362.953 50.630 L 366.758 58.760 359.833 65.684 L 352.909 72.608 353.204 80.364 L 353.500 88.120 359.740 84.898 C 363.172 83.126,368.327 79.575,371.194 77.007 L 376.408 72.337 382.284 77.072 C 385.515 79.676,390.824 83.226,394.080 84.962 L 400.000 88.117 400.000 79.648 C 400.000 71.615,399.857 71.057,397.222 68.839 C 395.694 67.553,392.758 64.633,390.696 62.350 L 386.949 58.201 388.889 54.850 C 397.905 39.278,402.629 10.475,397.077 4.923 L 394.154 2.000 373.147 2.000 L 352.140 2.000 352.966 4.750 M132.000 8.500 L 132.000 14.000 157.845 14.000 C 186.817 14.000,186.462 14.088,187.674 6.624 L 188.262 3.000 160.131 3.000 L 132.000 3.000 132.000 8.500 M18.000 21.500 L 18.000 27.000 27.500 27.000 L 37.000 27.000 37.000 32.500 L 37.000 38.000 28.500 38.000 L 20.000 38.000 20.000 43.500 L 20.000 49.000 28.500 49.000 L 37.000 49.000 37.000 55.500 L 37.000 62.000 27.500 62.000 L 18.000 62.000 18.000 67.500 L 18.000 73.000 41.566 73.000 C 68.856 73.000,70.924 72.280,70.994 62.750 C 70.997 62.337,66.725 62.000,61.500 62.000 L 52.000 62.000 52.000 55.500 L 52.000 49.000 57.750 48.985 C 65.339 48.964,68.000 46.779,68.000 40.566 C 68.000 38.025,67.921 38.000,60.000 38.000 L 52.000 38.000 52.000 32.500 L 52.000 27.000 58.750 26.985 C 66.967 26.966,71.000 23.689,71.000 17.032 C 71.000 16.349,62.050 16.000,44.500 16.000 L 18.000 16.000 18.000 21.500 M103.000 24.525 C 103.000 29.498,103.250 30.144,105.500 31.000 L 108.000 31.950 108.000 53.500 L 108.000 75.050 105.500 76.000 C 103.291 76.840,103.000 77.536,103.000 81.975 L 103.000 87.000 144.777 87.000 C 191.099 87.000,189.772 87.183,192.606 80.401 C 193.373 78.566,194.000 76.825,194.000 76.532 C 194.000 76.239,178.475 76.000,159.500 76.000 L 125.000 76.000 125.000 51.968 C 125.000 19.770,124.648 19.000,109.935 19.000 L 103.000 19.000 103.000 24.525 M226.535 22.350 C 225.283 23.266,224.878 24.424,225.276 25.947 C 226.377 30.158,225.234 31.000,218.413 31.000 L 212.040 31.000 211.770 52.250 C 211.504 73.207,211.469 73.514,209.250 74.487 C 207.261 75.360,207.000 76.201,207.000 81.737 L 207.000 88.000 213.566 88.000 C 226.306 88.000,227.947 84.845,227.978 60.291 L 228.000 43.082 258.979 42.791 L 289.957 42.500 292.454 40.000 C 293.828 38.625,295.239 36.059,295.591 34.298 L 296.231 31.097 289.365 30.798 L 282.500 30.500 282.168 27.004 C 281.676 21.811,280.514 20.997,273.628 21.024 L 267.500 21.047 265.314 26.024 L 263.127 31.000 253.697 31.000 L 244.267 31.000 242.189 26.000 L 240.111 21.000 234.247 21.000 C 230.901 21.000,227.589 21.580,226.535 22.350 M128.000 29.456 L 128.000 34.912 134.857 35.206 L 141.714 35.500 136.372 46.500 C 131.821 55.873,131.029 58.354,131.016 63.271 L 131.000 69.042 150.711 68.771 L 170.422 68.500 172.602 65.264 L 174.782 62.027 175.437 65.514 L 176.091 69.000 184.064 69.000 C 193.321 69.000,192.903 70.790,187.581 53.950 L 184.279 43.500 176.515 43.206 C 170.332 42.971,168.857 43.186,169.269 44.258 C 170.774 48.180,173.210 58.123,172.773 58.560 C 172.495 58.838,167.092 58.938,160.766 58.783 L 149.264 58.500 154.780 46.750 L 160.295 35.000 173.993 35.000 C 189.353 35.000,190.407 34.565,191.984 27.573 L 192.789 24.000 160.395 24.000 L 128.000 24.000 128.000 29.456 M311.000 54.625 L 311.000 83.250 314.250 82.626 C 321.600 81.215,322.002 79.711,321.985 53.694 C 321.976 40.937,321.639 30.005,321.235 29.400 C 320.063 27.646,316.351 26.000,313.566 26.000 L 311.000 26.000 311.000 54.625 M340.000 51.444 C 340.000 80.020,340.294 81.194,347.812 82.639 L 351.125 83.275 350.812 57.049 L 350.500 30.824 347.694 28.412 C 346.151 27.085,343.789 26.000,342.444 26.000 L 340.000 26.000 340.000 51.444 M54.390 53.427 C 52.762 57.669,54.323 59.490,59.859 59.806 C 65.928 60.153,69.000 58.317,69.000 54.345 C 69.000 51.474,55.465 50.624,54.390 53.427 " stroke="none" fill="#000000" fill-rule="evenodd"></path></g></svg>